<?xml version="1.0" encoding="UTF-8" standalone="no"?>
<!DOCTYPE svg PUBLIC "-//W3C//DTD SVG 1.1//EN" "http://www.w3.org/Graphics/SVG/1.1/DTD/svg11.dtd">
<svg version="1.1" xmlns="http://www.w3.org/2000/svg" xmlns:xlink="http://www.w3.org/1999/xlink" preserveAspectRatio="xMidYMid meet" viewBox="73.45255474452549 -1 138.96350364963504 104" width="134.96" height="100"><defs><path d="M141.43 0C145.86 0 149.45 3.59 149.45 8.03C149.45 26.42 149.45 73.58 149.45 91.97C149.45 96.41 145.86 100 141.43 100C128.03 100 95.87 100 82.48 100C78.05 100 74.45 96.41 74.45 91.97C74.45 73.58 74.45 26.42 74.45 8.03C74.45 3.59 78.05 0 82.48 0C95.87 0 128.03 0 141.43 0Z" id="h1mD3fwUF8"></path><clipPath id="clipaBUwdzmBC"><use xlink:href="#h1mD3fwUF8" opacity="1"></use></clipPath><path d="M165.69 50L166.65 42.82C164.43 42.82 163.2 42.82 162.96 42.82C161 42.82 159.42 40.68 159.42 38.04C159.42 34.72 159.42 8.1 159.42 4.77C159.42 2.14 161 0 162.96 0C167.25 0 201.58 0 205.88 0C207.83 0 209.42 2.14 209.42 4.77C209.42 8.1 209.42 34.72 209.42 38.04C209.42 40.68 207.83 42.82 205.88 42.82C203.93 42.82 194.19 42.82 176.65 42.82L165.69 50Z" id="aJDHSpJje"></path><clipPath id="clipdjx3XmZjr"><use xlink:href="#aJDHSpJje" opacity="1"></use></clipPath><path d="M159.42 74.27L184.42 50L209.42 74.27L193.57 74.27L193.57 100L175.22 100L175.22 74.27L159.42 74.27Z" id="d37jedv6T8"></path><clipPath id="clipbaljHARaS"><use xlink:href="#d37jedv6T8" opacity="1"></use></clipPath><path d="M87.5 14.05L136.41 14.05L136.41 22.81L87.5 22.81L87.5 14.05Z" id="a1kUWJAkqX"></path><path d="M87.5 31.35L136.41 31.35L136.41 40.11L87.5 40.11L87.5 31.35Z" id="e5deMNC2UX"></path><path d="M87.5 50L136.41 50L136.41 58.76L87.5 58.76L87.5 50Z" id="bAOTeNZ2K"></path></defs><g><g><use xlink:href="#h1mD3fwUF8" opacity="1" fill="#909090" fill-opacity="1"></use><g clip-path="url(#clipaBUwdzmBC)"><use xlink:href="#h1mD3fwUF8" opacity="1" fill-opacity="0" stroke="#000000" stroke-width="12" stroke-opacity="1"></use></g></g><g><use xlink:href="#aJDHSpJje" opacity="1" fill="#1bff00" fill-opacity="1"></use><g clip-path="url(#clipdjx3XmZjr)"><use xlink:href="#aJDHSpJje" opacity="1" fill-opacity="0" stroke="#000000" stroke-width="12" stroke-opacity="1"></use></g></g><g><use xlink:href="#d37jedv6T8" opacity="1" fill="#00ff12" fill-opacity="1"></use><g clip-path="url(#clipbaljHARaS)"><use xlink:href="#d37jedv6T8" opacity="1" fill-opacity="0" stroke="#000000" stroke-width="12" stroke-opacity="1"></use></g></g><g><use xlink:href="#a1kUWJAkqX" opacity="1" fill="#000000" fill-opacity="1"></use></g><g><use xlink:href="#e5deMNC2UX" opacity="1" fill="#000000" fill-opacity="1"></use></g><g><use xlink:href="#bAOTeNZ2K" opacity="1" fill="#000000" fill-opacity="1"></use></g></g></svg>